<svg width="21" height="20" viewBox="0 0 21 20" fill="none" xmlns="http://www.w3.org/2000/svg">
<rect width="19.9708" height="19.9708" transform="translate(0.919922 0.0146484)" fill="white" fill-opacity="0.01"/>
<path fill-rule="evenodd" clip-rule="evenodd" d="M19.2266 9.99988C19.2266 14.5955 15.5011 18.321 10.9054 18.321C6.30974 18.321 2.58423 14.5955 2.58423 9.99988C2.58423 5.40422 6.30974 1.67871 10.9054 1.67871C15.5011 1.67871 19.2266 5.40422 19.2266 9.99988ZM8.72725 9.22511C8.82877 9.26872 8.92059 9.33211 8.99735 9.41159L10.0733 10.4875L12.8134 7.74736C12.8902 7.66788 12.982 7.60449 13.0835 7.56088C13.1851 7.51727 13.2943 7.49431 13.4047 7.49335C13.5152 7.49239 13.6248 7.51345 13.7271 7.55529C13.8293 7.59713 13.9222 7.65891 14.0004 7.73704C14.0785 7.81517 14.1403 7.90808 14.1821 8.01034C14.224 8.11261 14.245 8.22218 14.2441 8.33267C14.2431 8.44316 14.2201 8.55235 14.1765 8.65387C14.1329 8.75539 14.0695 8.84721 13.9901 8.92397L10.6616 12.2524C10.5055 12.4084 10.2939 12.4961 10.0733 12.4961C9.85263 12.4961 9.64102 12.4084 9.48497 12.2524L7.82074 10.5882C7.74126 10.5114 7.67787 10.4196 7.63426 10.3181C7.59065 10.2166 7.56769 10.1074 7.56673 9.9969C7.56577 9.88641 7.58683 9.77684 7.62867 9.67458C7.67051 9.57231 7.73229 9.4794 7.81042 9.40128C7.88855 9.32315 7.98146 9.26136 8.08372 9.21952C8.18599 9.17768 8.29556 9.15663 8.40605 9.15759C8.51654 9.15854 8.62573 9.1815 8.72725 9.22511Z" fill="#36B37E"/>
</svg>
