<svg width="33" height="32" viewBox="0 0 33 32" fill="none" xmlns="http://www.w3.org/2000/svg">
<g clip-path="url(#clip0_190_10810)">
<rect width="32" height="32" transform="translate(0.919922)" fill="white" fill-opacity="0.01"/>
<path d="M29.7207 14.2243L18.0479 2.18206L16.9021 1L8.12965 10.0501L4.11937 14.2243C3.6897 14.6675 3.6897 15.3694 4.11937 15.7757L12.1399 24.0501L16.9021 28.9631L25.6746 19.9129L25.8178 19.7652L29.7207 15.7757C30.1504 15.3325 30.1504 14.6306 29.7207 14.2243ZM16.9021 19.1372L12.8919 15L16.9021 10.8628L20.9124 15L16.9021 19.1372Z" fill="#2684FF"/>
<path d="M16.9021 10.863C14.2883 8.1664 14.2525 3.77062 16.8663 1.03711L8.12964 10.0872L12.8918 15.0002L16.9021 10.863Z" fill="url(#paint0_linear_190_10810)"/>
<path d="M20.9482 14.9629L16.9021 19.137C19.5517 21.8705 19.5517 26.2663 16.9021 28.9998L25.7104 19.9128L20.9482 14.9629Z" fill="url(#paint1_linear_190_10810)"/>
</g>
<defs>
<linearGradient id="paint0_linear_190_10810" x1="16.2" y1="6.66854" x2="10.4246" y2="12.2667" gradientUnits="userSpaceOnUse">
<stop offset="0.176" stop-color="#0052CC"/>
<stop offset="1" stop-color="#2684FF"/>
</linearGradient>
<linearGradient id="paint1_linear_190_10810" x1="17.6825" y1="23.2667" x2="23.4463" y2="17.6797" gradientUnits="userSpaceOnUse">
<stop offset="0.176" stop-color="#0052CC"/>
<stop offset="1" stop-color="#2684FF"/>
</linearGradient>
<clipPath id="clip0_190_10810">
<rect width="32" height="32" fill="white" transform="translate(0.919922)"/>
</clipPath>
</defs>
</svg>
